<?xml version="1.0" encoding="UTF-8"?><svg xmlns="http://www.w3.org/2000/svg" viewBox="0 0 2270 434.93"><defs><style>.d{fill:#03502b;}</style></defs><g id="a"/><g id="b"><g id="c"><g><g><polygon class="d" points="345 0 243.27 313.56 434.93 178.72 434.93 0 345 0"/><polygon class="d" points="224.4 301.29 77.2 0 0 0 0 230.49 214.92 330.51 224.4 301.29"/><polygon class="d" points="322.16 0 101.43 0 234.05 271.54 322.16 0"/><polygon class="d" points="204.02 434.93 434.93 434.93 434.93 205.72 232.12 347.94 204.02 434.93"/><polygon class="d" points="0 254.72 0 434.93 181.03 434.93 208.16 351.34 0 254.72"/></g><g><path class="d" d="M607.72,108.23l-78.95,218.69h32.82l20.72-57.32h86.66l20.57,57.32h32.67l-78.8-218.69h-35.69Zm-17.39,132.03l35.09-100.57,35.09,100.57h-70.17Z"/><path class="d" d="M875.26,255.31c-2.82-3.93-6.71-7.54-11.64-10.81-4.94-3.28-11.24-5.92-18.91-7.94l-29.64-7.41c-8.57-1.91-15.05-4.36-19.43-7.33-4.39-2.97-6.58-7.03-6.58-12.18,0-7.56,2.97-13.18,8.92-16.86,5.95-3.68,13.56-5.52,22.84-5.52s16.21,2.04,21.7,6.12c5.49,4.08,8.75,9.7,9.75,16.86h27.98c-.3-14.92-5.82-26.32-16.56-34.18-10.74-7.86-24.93-11.8-42.57-11.8-13.41,0-24.68,2.04-33.8,6.12-9.13,4.08-15.98,9.7-20.57,16.86-4.59,7.16-6.88,15.33-6.88,24.5,.1,11.9,4.03,21.15,11.8,27.75,7.76,6.6,18.1,11.42,31,14.44l31.16,7.41c7.06,1.51,12.25,3.88,15.58,7.11,3.33,3.23,4.99,7.51,4.99,12.86,0,7.46-3.08,12.98-9.23,16.56-6.15,3.58-14.17,5.37-24.05,5.37-5.95,0-11.52-.93-16.71-2.8-5.19-1.86-9.63-4.74-13.31-8.62-3.68-3.88-6.18-8.79-7.49-14.75h-28.89c1.61,11.49,5.62,20.92,12.02,28.28,6.4,7.36,14.37,12.76,23.9,16.18,9.53,3.43,19.74,5.14,30.63,5.14,12.8,0,23.79-1.89,32.97-5.67,9.17-3.78,16.26-9.17,21.25-16.18,4.99-7.01,7.49-15.45,7.49-25.33,0-3.73-.58-7.71-1.74-11.95-1.16-4.23-3.15-8.32-5.97-12.25Z"/><path class="d" d="M1026.64,173.87c-10.79-6.4-23.54-9.6-38.26-9.6s-28.56,3.4-39.4,10.21c-10.84,6.81-19.13,16.36-24.88,28.66-5.75,12.3-8.62,26.67-8.62,43.1s3.02,31.56,9.07,43.56c6.05,12,14.52,21.15,25.41,27.45,10.89,6.3,23.64,9.45,38.26,9.45,15.73,0,28.96-3.4,39.7-10.21,10.74-6.81,18.88-16.26,24.42-28.36,5.54-12.1,8.32-26.06,8.32-41.89,0-17.34-2.98-32.14-8.92-44.39-5.95-12.25-14.32-21.58-25.11-27.98Zm-2.42,101.03c-3.02,8.52-7.51,15.12-13.46,19.81-5.95,4.69-13.41,7.03-22.38,7.03-9.78,0-17.67-2.57-23.67-7.71-6-5.14-10.36-12-13.08-20.57-2.72-8.57-4.08-17.94-4.08-28.13,0-11.49,1.51-21.45,4.54-29.87,3.02-8.42,7.59-14.92,13.69-19.51,6.1-4.59,13.64-6.88,22.61-6.88,9.78,0,17.62,2.52,23.52,7.56,5.9,5.04,10.18,11.82,12.85,20.34,2.67,8.52,4.01,17.97,4.01,28.36,0,11.19-1.51,21.05-4.54,29.57Z"/><path class="d" d="M1210.92,116.25c-12.35-5.34-26.34-8.02-41.97-8.02h-75.77v218.69h32.97v-80.16h47.19c15.32,0,28.81-2.7,40.46-8.09,11.65-5.39,20.72-13.21,27.22-23.44,6.5-10.23,9.76-22.61,9.76-37.13s-3.55-27.88-10.66-38.26c-7.11-10.38-16.84-18.25-29.19-23.59Zm-4.46,88.78c-8.77,8.02-20.11,12.02-34.03,12.02h-46.43v-85.9h45.22c14.11,0,25.71,3.61,34.78,10.81,9.07,7.21,13.61,17.57,13.61,31.08s-4.39,23.97-13.16,31.99Z"/><path class="d" d="M1362.79,164.83c-7.07,0-13.79,1.36-20.15,4.07-6.36,2.72-11.92,6.72-16.68,12-4.77,5.28-8.49,11.82-11.15,19.61v-32.6h-31.53v159.02h32.91v-95.66c0-6.25,1.1-11.69,3.31-16.3,2.2-4.61,5.38-8.36,9.54-11.23,4.15-2.87,9.1-4.92,14.84-6.15,5.74-1.23,12.1-1.59,19.07-1.08,1.54,.1,3.36,.26,5.46,.46,2.1,.21,3.82,.62,5.15,1.23v-31.68c-1.13-.62-2.67-1.05-4.61-1.31-1.95-.25-4-.38-6.15-.38Z"/><path class="d" d="M1503.09,173.87c-10.79-6.4-23.55-9.6-38.26-9.6s-28.56,3.4-39.4,10.21c-10.84,6.81-19.13,16.36-24.88,28.66-5.75,12.3-8.62,26.67-8.62,43.1s3.02,31.56,9.07,43.56c6.05,12,14.52,21.15,25.41,27.45,10.89,6.3,23.64,9.45,38.26,9.45,15.73,0,28.96-3.4,39.7-10.21,10.74-6.81,18.88-16.26,24.42-28.36,5.54-12.1,8.32-26.06,8.32-41.89,0-17.34-2.97-32.14-8.92-44.39-5.95-12.25-14.32-21.58-25.1-27.98Zm-2.42,101.03c-3.02,8.52-7.51,15.12-13.46,19.81-5.95,4.69-13.41,7.03-22.38,7.03-9.78,0-17.67-2.57-23.67-7.71-6-5.14-10.36-12-13.08-20.57-2.72-8.57-4.08-17.94-4.08-28.13,0-11.49,1.51-21.45,4.54-29.87,3.02-8.42,7.59-14.92,13.69-19.51,6.1-4.59,13.64-6.88,22.61-6.88,9.78,0,17.62,2.52,23.52,7.56,5.9,5.04,10.18,11.82,12.85,20.34,2.67,8.52,4.01,17.97,4.01,28.36,0,11.19-1.51,21.05-4.54,29.57Z"/><path class="d" d="M1648.98,108.01l-78.95,218.69h32.82l20.72-57.32h86.66l20.57,57.32h32.67l-78.79-218.69h-35.69Zm-17.39,129.01l35.09-100.57,35.09,100.57h-70.17Z"/><path class="d" d="M1875.67,164.23c-7.09,0-13.82,1.36-20.19,4.08-6.37,2.72-11.95,6.73-16.72,12.02-4.78,5.29-8.5,11.84-11.17,19.65v-32.68h-31.6v159.38h32.99v-95.88c0-6.27,1.1-11.71,3.31-16.34,2.21-4.63,5.4-8.37,9.56-11.25,4.16-2.88,9.12-4.93,14.88-6.17,5.75-1.23,12.12-1.59,19.11-1.08,1.54,.1,3.36,.26,5.47,.46,2.1,.21,3.83,.62,5.16,1.23v-31.75c-1.13-.62-2.67-1.05-4.62-1.31-1.95-.25-4.01-.38-6.17-.38Z"/><path class="d" d="M2009.96,267.97c0,11-3.29,19.35-9.86,25.05-6.58,5.7-15.31,8.55-26.2,8.55-12.02,0-21.02-2.98-26.97-8.94-5.96-5.96-8.94-13.72-8.94-23.27v-105.12h-33.14v108.67c0,8.84,1.67,16.6,5.01,23.27,3.34,6.68,7.86,12.28,13.56,16.8,5.7,4.52,12.2,7.91,19.5,10.17,7.29,2.26,14.95,3.44,22.97,3.55,7.29,.1,14.2-.95,20.73-3.16,6.52-2.21,12.18-5.8,16.95-10.79,4.78-4.98,8.09-11.64,9.94-19.96l3.7,34.14h25.59V164.23h-32.83v103.74Z"/><polygon class="d" points="2204.32 184.37 2204.32 164.23 2079.23 164.23 2079.23 188.62 2163.88 188.62 2075.3 306.78 2075.3 326.92 2204.95 326.92 2204.95 302.54 2115.58 302.54 2204.32 184.37"/><rect class="d" x="2237.59" y="164.23" width="32.41" height="162.69"/><rect class="d" x="2237.46" y="108.23" width="32.52" height="31.91"/></g></g></g></g></svg>